<?xml version="1.0" ?><svg width="32px" height="32px" viewBox="0 0 32 32" xmlns="http://www.w3.org/2000/svg"><defs><style>.cls-1{fill:none;stroke:#000;stroke-linecap:round;stroke-linejoin:round;}</style></defs><g id="ic-social-media-whatsapp"><path class="cls-1" d="M17.35,2.65A12.65,12.65,0,0,0,9.92,25.54l.41,3.82,3.22-2a12.9,12.9,0,0,0,3.8.58,12.66,12.66,0,0,0,0-25.32Z"/><path class="cls-1" d="M14.21,10.17l1.65,1.65a1.13,1.13,0,0,1,0,1.61h0a1.15,1.15,0,0,0,0,1.61l2.45,2.45a1.15,1.15,0,0,0,1.61,0h0a1.13,1.13,0,0,1,1.61,0l1.66,1.66a1.15,1.15,0,0,1,0,1.61l-.58.58a1.24,1.24,0,0,1-.56.31h0A8.63,8.63,0,0,1,11.71,11.31h0a1.11,1.11,0,0,1,.31-.56l.58-.58A1.13,1.13,0,0,1,14.21,10.17Z"/></g></svg>